<svg width="800" height="286" viewBox="0 0 800 286" fill="none" xmlns="http://www.w3.org/2000/svg">
<g clip-path="url(#clip0_202_356)">
<path d="M0 20C0 8.95431 8.95431 0 20 0H780C791.046 0 800 8.9543 800 20V266C800 277.046 791.046 286 780 286H20C8.95429 286 0 277.046 0 266V20Z" fill="url(#paint0_linear_202_356)"/>
<g filter="url(#filter0_n_202_356)">
<rect width="800" height="286" rx="20" fill="#262540"/>
<circle opacity="0.8" cx="378" cy="127" r="6" fill="white"/>
<circle opacity="0.8" cx="400" cy="123" r="6" fill="white"/>
<circle opacity="0.8" cx="422" cy="127" r="6" fill="white"/>
<path d="M362.097 164V151.4H363.897V162.578H369.657V164H362.097ZM375.411 164.216C374.559 164.216 373.791 164.018 373.107 163.622C372.435 163.226 371.901 162.674 371.505 161.966C371.121 161.246 370.929 160.418 370.929 159.482C370.929 158.522 371.127 157.688 371.523 156.98C371.919 156.26 372.459 155.702 373.143 155.306C373.827 154.91 374.595 154.712 375.447 154.712C376.311 154.712 377.079 154.91 377.751 155.306C378.423 155.702 378.951 156.254 379.335 156.962C379.731 157.67 379.929 158.504 379.929 159.464C379.929 160.424 379.731 161.258 379.335 161.966C378.951 162.674 378.417 163.226 377.733 163.622C377.049 164.018 376.275 164.216 375.411 164.216ZM375.411 162.668C375.903 162.668 376.347 162.548 376.743 162.308C377.151 162.068 377.475 161.714 377.715 161.246C377.967 160.766 378.093 160.172 378.093 159.464C378.093 158.756 377.973 158.168 377.733 157.7C377.493 157.22 377.169 156.86 376.761 156.62C376.365 156.38 375.927 156.26 375.447 156.26C374.967 156.26 374.523 156.38 374.115 156.62C373.707 156.86 373.377 157.22 373.125 157.7C372.885 158.168 372.765 158.756 372.765 159.464C372.765 160.172 372.885 160.766 373.125 161.246C373.377 161.714 373.701 162.068 374.097 162.308C374.505 162.548 374.943 162.668 375.411 162.668ZM385.052 164.216C384.308 164.216 383.69 164.09 383.198 163.838C382.706 163.586 382.34 163.25 382.1 162.83C381.86 162.398 381.74 161.936 381.74 161.444C381.74 160.844 381.896 160.334 382.208 159.914C382.52 159.482 382.964 159.152 383.54 158.924C384.116 158.696 384.806 158.582 385.61 158.582H387.968C387.968 158.054 387.89 157.616 387.734 157.268C387.578 156.92 387.344 156.662 387.032 156.494C386.732 156.314 386.348 156.224 385.88 156.224C385.34 156.224 384.878 156.356 384.494 156.62C384.11 156.872 383.87 157.25 383.774 157.754H381.974C382.046 157.118 382.262 156.578 382.622 156.134C382.994 155.678 383.468 155.33 384.044 155.09C384.62 154.838 385.232 154.712 385.88 154.712C386.732 154.712 387.446 154.862 388.022 155.162C388.598 155.462 389.03 155.888 389.318 156.44C389.618 156.98 389.768 157.628 389.768 158.384V164H388.202L388.058 162.47C387.926 162.71 387.77 162.938 387.59 163.154C387.41 163.37 387.194 163.556 386.942 163.712C386.702 163.868 386.42 163.988 386.096 164.072C385.784 164.168 385.436 164.216 385.052 164.216ZM385.394 162.758C385.778 162.758 386.126 162.68 386.438 162.524C386.75 162.368 387.014 162.158 387.23 161.894C387.458 161.618 387.626 161.312 387.734 160.976C387.854 160.628 387.92 160.274 387.932 159.914V159.86H385.79C385.274 159.86 384.854 159.926 384.53 160.058C384.218 160.178 383.99 160.346 383.846 160.562C383.702 160.778 383.63 161.03 383.63 161.318C383.63 161.618 383.696 161.876 383.828 162.092C383.972 162.296 384.176 162.458 384.44 162.578C384.704 162.698 385.022 162.758 385.394 162.758ZM396.098 164.216C395.234 164.216 394.472 164.012 393.812 163.604C393.152 163.184 392.636 162.62 392.264 161.912C391.904 161.192 391.724 160.376 391.724 159.464C391.724 158.54 391.904 157.724 392.264 157.016C392.636 156.308 393.152 155.75 393.812 155.342C394.484 154.922 395.252 154.712 396.116 154.712C396.824 154.712 397.448 154.856 397.988 155.144C398.528 155.42 398.948 155.816 399.248 156.332V151.04H401.048V164H399.428L399.248 162.596C399.068 162.872 398.834 163.136 398.546 163.388C398.258 163.628 397.91 163.826 397.502 163.982C397.094 164.138 396.626 164.216 396.098 164.216ZM396.386 162.65C396.95 162.65 397.448 162.518 397.88 162.254C398.312 161.99 398.642 161.618 398.87 161.138C399.11 160.658 399.23 160.1 399.23 159.464C399.23 158.828 399.11 158.276 398.87 157.808C398.642 157.328 398.312 156.956 397.88 156.692C397.448 156.416 396.95 156.278 396.386 156.278C395.846 156.278 395.36 156.416 394.928 156.692C394.496 156.956 394.16 157.328 393.92 157.808C393.68 158.276 393.56 158.828 393.56 159.464C393.56 160.1 393.68 160.658 393.92 161.138C394.16 161.618 394.496 161.99 394.928 162.254C395.36 162.518 395.846 162.65 396.386 162.65ZM403.635 164V154.928H405.435V164H403.635ZM404.553 153.218C404.205 153.218 403.917 153.11 403.689 152.894C403.473 152.678 403.365 152.402 403.365 152.066C403.365 151.742 403.473 151.478 403.689 151.274C403.917 151.058 404.205 150.95 404.553 150.95C404.889 150.95 405.171 151.058 405.399 151.274C405.627 151.478 405.741 151.742 405.741 152.066C405.741 152.402 405.627 152.678 405.399 152.894C405.171 153.11 404.889 153.218 404.553 153.218ZM408.009 164V154.928H409.629L409.737 156.476C410.025 155.936 410.433 155.51 410.961 155.198C411.489 154.874 412.095 154.712 412.779 154.712C413.499 154.712 414.117 154.856 414.633 155.144C415.149 155.432 415.551 155.87 415.839 156.458C416.127 157.034 416.271 157.76 416.271 158.636V164H414.471V158.816C414.471 157.976 414.285 157.34 413.913 156.908C413.541 156.476 413.001 156.26 412.293 156.26C411.825 156.26 411.405 156.374 411.033 156.602C410.661 156.818 410.361 157.142 410.133 157.574C409.917 158.006 409.809 158.534 409.809 159.158V164H408.009ZM422.264 168.176C421.436 168.176 420.704 168.068 420.068 167.852C419.432 167.648 418.94 167.33 418.592 166.898C418.244 166.466 418.07 165.938 418.07 165.314C418.07 164.99 418.142 164.66 418.286 164.324C418.43 164 418.664 163.688 418.988 163.388C419.312 163.088 419.75 162.818 420.302 162.578L421.31 163.388C420.698 163.616 420.284 163.886 420.068 164.198C419.864 164.522 419.762 164.834 419.762 165.134C419.762 165.494 419.87 165.794 420.086 166.034C420.302 166.274 420.596 166.454 420.968 166.574C421.352 166.694 421.784 166.754 422.264 166.754C422.732 166.754 423.14 166.688 423.488 166.556C423.836 166.424 424.106 166.238 424.298 165.998C424.49 165.758 424.586 165.476 424.586 165.152C424.586 164.768 424.442 164.444 424.154 164.18C423.866 163.928 423.314 163.778 422.498 163.73C421.814 163.682 421.232 163.616 420.752 163.532C420.284 163.448 419.882 163.346 419.546 163.226C419.222 163.106 418.946 162.974 418.718 162.83C418.502 162.686 418.316 162.536 418.16 162.38V161.966L419.96 160.112L421.418 160.616L419.456 162.434L419.834 161.624C419.966 161.708 420.092 161.792 420.212 161.876C420.332 161.948 420.494 162.014 420.698 162.074C420.902 162.134 421.178 162.188 421.526 162.236C421.874 162.284 422.33 162.332 422.894 162.38C423.71 162.44 424.364 162.584 424.856 162.812C425.36 163.04 425.726 163.346 425.954 163.73C426.182 164.114 426.296 164.57 426.296 165.098C426.296 165.614 426.152 166.106 425.864 166.574C425.588 167.042 425.15 167.426 424.55 167.726C423.962 168.026 423.2 168.176 422.264 168.176ZM422.264 161.21C421.496 161.21 420.842 161.066 420.302 160.778C419.774 160.49 419.366 160.1 419.078 159.608C418.802 159.116 418.664 158.57 418.664 157.97C418.664 157.358 418.802 156.812 419.078 156.332C419.366 155.84 419.78 155.45 420.32 155.162C420.86 154.862 421.508 154.712 422.264 154.712C423.02 154.712 423.662 154.862 424.19 155.162C424.73 155.45 425.138 155.84 425.414 156.332C425.702 156.812 425.846 157.358 425.846 157.97C425.846 158.57 425.702 159.116 425.414 159.608C425.138 160.1 424.73 160.49 424.19 160.778C423.662 161.066 423.02 161.21 422.264 161.21ZM422.264 159.77C422.852 159.77 423.32 159.62 423.668 159.32C424.016 159.008 424.19 158.558 424.19 157.97C424.19 157.382 424.016 156.938 423.668 156.638C423.32 156.326 422.852 156.17 422.264 156.17C421.676 156.17 421.202 156.326 420.842 156.638C420.482 156.938 420.302 157.382 420.302 157.97C420.302 158.558 420.482 159.008 420.842 159.32C421.202 159.62 421.676 159.77 422.264 159.77ZM423.74 156.35L423.308 154.928H427.034V156.17L423.74 156.35ZM429.559 164.09C429.211 164.09 428.923 163.982 428.695 163.766C428.479 163.538 428.371 163.268 428.371 162.956C428.371 162.632 428.479 162.362 428.695 162.146C428.923 161.918 429.211 161.804 429.559 161.804C429.907 161.804 430.189 161.918 430.405 162.146C430.621 162.362 430.729 162.632 430.729 162.956C430.729 163.268 430.621 163.538 430.405 163.766C430.189 163.982 429.907 164.09 429.559 164.09ZM433.426 164.09C433.078 164.09 432.79 163.982 432.562 163.766C432.346 163.538 432.238 163.268 432.238 162.956C432.238 162.632 432.346 162.362 432.562 162.146C432.79 161.918 433.078 161.804 433.426 161.804C433.774 161.804 434.056 161.918 434.272 162.146C434.488 162.362 434.596 162.632 434.596 162.956C434.596 163.268 434.488 163.538 434.272 163.766C434.056 163.982 433.774 164.09 433.426 164.09ZM437.294 164.09C436.946 164.09 436.658 163.982 436.43 163.766C436.214 163.538 436.106 163.268 436.106 162.956C436.106 162.632 436.214 162.362 436.43 162.146C436.658 161.918 436.946 161.804 437.294 161.804C437.642 161.804 437.924 161.918 438.14 162.146C438.356 162.362 438.464 162.632 438.464 162.956C438.464 163.268 438.356 163.538 438.14 163.766C437.924 163.982 437.642 164.09 437.294 164.09Z" fill="#D4D3D9"/>
</g>
</g>
<defs>
<filter id="filter0_n_202_356" x="0" y="0" width="800" height="286" filterUnits="userSpaceOnUse" color-interpolation-filters="sRGB">
<feFlood flood-opacity="0" result="BackgroundImageFix"/>
<feBlend mode="normal" in="SourceGraphic" in2="BackgroundImageFix" result="shape"/>
<feTurbulence type="fractalNoise" baseFrequency="1 1" stitchTiles="stitch" numOctaves="3" result="noise" seed="6859" />
<feColorMatrix in="noise" type="luminanceToAlpha" result="alphaNoise" />
<feComponentTransfer in="alphaNoise" result="coloredNoise1">
<feFuncA type="discrete" tableValues="0 0 0 0 0 0 0 0 0 0 0 0 0 0 0 0 0 0 0 0 0 1 1 1 1 1 1 1 1 1 0 0 0 0 0 0 0 0 0 0 0 0 0 0 0 0 0 0 0 0 0 0 0 0 0 0 0 0 0 0 0 0 0 0 0 0 0 0 0 0 0 0 0 0 0 0 0 0 0 0 0 0 0 0 0 0 0 0 0 0 0 0 0 0 0 0 0 0 0 0 "/>
</feComponentTransfer>
<feComposite operator="in" in2="shape" in="coloredNoise1" result="noise1Clipped" />
<feFlood flood-color="rgba(255, 255, 255, 0.3)" result="color1Flood" />
<feComposite operator="in" in2="noise1Clipped" in="color1Flood" result="color1" />
<feMerge result="effect1_noise_202_356">
<feMergeNode in="shape" />
<feMergeNode in="color1" />
</feMerge>
</filter>
<linearGradient id="paint0_linear_202_356" x1="-64.8026" y1="-44.6275" x2="817.062" y2="127.756" gradientUnits="userSpaceOnUse">
<stop stop-color="#4658D9"/>
<stop offset="1" stop-color="#2B1B9C"/>
</linearGradient>
<clipPath id="clip0_202_356">
<path d="M0 20C0 8.95431 8.95431 0 20 0H780C791.046 0 800 8.9543 800 20V266C800 277.046 791.046 286 780 286H20C8.95429 286 0 277.046 0 266V20Z" fill="white"/>
</clipPath>
</defs>
</svg>
